<svg id="Layer_1" data-name="Layer 1" xmlns="http://www.w3.org/2000/svg" viewBox="0 0 512 512"><defs><style>.cls-1{fill:#29abe2;}.cls-2{fill:#c1272d;}.cls-3{fill:#22b573;}.cls-4{fill:#fbb03b;}.cls-5{fill:#93278f;}</style></defs><title>logo</title><rect class="cls-1" x="118.26" y="73.59" width="64" height="20" rx="10"/><rect class="cls-2" x="189.76" y="73.59" width="100" height="20" rx="10"/><rect class="cls-3" x="118.26" y="104.74" width="120" height="20" rx="10"/><rect class="cls-4" x="248.01" y="104.74" width="64" height="20" rx="10"/><rect class="cls-2" x="118.26" y="135.26" width="64" height="20" rx="10"/><rect class="cls-5" x="191.02" y="135.26" width="100" height="20" rx="10"/><rect class="cls-1" x="300.27" y="135.26" width="64" height="20" rx="10"/><rect class="cls-4" x="118.77" y="166.41" width="139.49" height="20" rx="10"/><rect class="cls-3" x="266.57" y="165.09" width="32" height="20" rx="10"/><rect class="cls-3" x="118.77" y="197.55" width="32" height="20" rx="10"/><rect class="cls-2" x="158.26" y="198.16" width="100" height="20" rx="10"/><rect class="cls-4" x="266.57" y="196.89" width="64" height="20" rx="10"/><rect class="cls-1" x="118.26" y="229.31" width="191.24" height="20" rx="10"/><rect class="cls-5" x="318.26" y="228.69" width="50" height="20" rx="10"/><rect class="cls-1" x="226.26" y="262.38" width="64" height="20" rx="10" transform="translate(516.53 544.77) rotate(180)"/><rect class="cls-2" x="118.77" y="262.38" width="100" height="20" rx="10" transform="translate(337.54 544.77) rotate(180)"/><rect class="cls-3" x="191.02" y="293.22" width="120" height="20" rx="10" transform="translate(502.04 606.44) rotate(180)"/><rect class="cls-4" x="118.26" y="293.22" width="64" height="20" rx="10" transform="translate(300.53 606.44) rotate(180)"/><rect class="cls-2" x="300.27" y="324.67" width="64" height="20" rx="10" transform="translate(664.55 669.34) rotate(180)"/><rect class="cls-5" x="188.52" y="324.67" width="100" height="20" rx="10" transform="translate(477.03 669.34) rotate(180)"/><rect class="cls-1" x="118.26" y="324.05" width="64" height="20" rx="10" transform="translate(300.53 668.11) rotate(180)"/><rect class="cls-4" x="160.78" y="355.2" width="139.49" height="20" rx="10" transform="translate(461.06 730.4) rotate(180)"/><rect class="cls-3" x="118.77" y="355.2" width="32" height="20" rx="10" transform="translate(269.54 730.4) rotate(180)"/><rect class="cls-3" x="294.77" y="386.96" width="32" height="20" rx="10" transform="matrix(-1, 0, 0, -1, 621.54, 793.91)"/><rect class="cls-2" x="188.52" y="386.96" width="100" height="20" rx="10" transform="translate(477.03 793.91) rotate(180)"/><rect class="cls-4" x="118.26" y="386.34" width="64" height="20" rx="10" transform="translate(300.53 792.68) rotate(180)"/><rect class="cls-1" x="227.53" y="418.41" width="140.74" height="20" rx="10" transform="translate(595.79 856.81) rotate(180)"/><rect class="cls-5" x="118.77" y="417.79" width="100" height="20" rx="10" transform="translate(337.54 855.58) rotate(180)"/></svg>